<mxfile host="Electron" agent="Mozilla/5.0 (Windows NT 10.0; Win64; x64) AppleWebKit/537.36 (KHTML, like Gecko) draw.io/28.1.2 Chrome/138.0.7204.243 Electron/37.4.0 Safari/537.36" version="28.1.2">
  <diagram name="Página-1" id="-1D1eeQOtOnYP5iGt_7W">
    <mxGraphModel dx="1426" dy="841" grid="1" gridSize="10" guides="1" tooltips="1" connect="1" arrows="1" fold="1" page="1" pageScale="1" pageWidth="4681" pageHeight="3300" math="0" shadow="0">
      <root>
        <mxCell id="0" />
        <mxCell id="1" parent="0" />
        <mxCell id="Ky8Ka03l67uiZXdJzAAu-6" value="" style="edgeStyle=orthogonalEdgeStyle;rounded=0;orthogonalLoop=1;jettySize=auto;html=1;" edge="1" parent="1" source="Ky8Ka03l67uiZXdJzAAu-1" target="Ky8Ka03l67uiZXdJzAAu-5">
          <mxGeometry relative="1" as="geometry" />
        </mxCell>
        <mxCell id="Ky8Ka03l67uiZXdJzAAu-1" value="Cliente" style="rounded=1;arcSize=10;whiteSpace=wrap;html=1;align=center;" vertex="1" parent="1">
          <mxGeometry x="420" y="440" width="100" height="40" as="geometry" />
        </mxCell>
        <mxCell id="Ky8Ka03l67uiZXdJzAAu-13" value="" style="edgeStyle=orthogonalEdgeStyle;rounded=0;orthogonalLoop=1;jettySize=auto;html=1;" edge="1" parent="1" source="Ky8Ka03l67uiZXdJzAAu-2" target="Ky8Ka03l67uiZXdJzAAu-12">
          <mxGeometry relative="1" as="geometry" />
        </mxCell>
        <mxCell id="Ky8Ka03l67uiZXdJzAAu-2" value="funcionario" style="rounded=1;arcSize=10;whiteSpace=wrap;html=1;align=center;" vertex="1" parent="1">
          <mxGeometry x="1710" y="440" width="100" height="40" as="geometry" />
        </mxCell>
        <mxCell id="Ky8Ka03l67uiZXdJzAAu-19" value="" style="edgeStyle=orthogonalEdgeStyle;rounded=0;orthogonalLoop=1;jettySize=auto;html=1;" edge="1" parent="1" source="Ky8Ka03l67uiZXdJzAAu-3" target="Ky8Ka03l67uiZXdJzAAu-18">
          <mxGeometry relative="1" as="geometry" />
        </mxCell>
        <mxCell id="Ky8Ka03l67uiZXdJzAAu-3" value="Carro" style="rounded=1;arcSize=10;whiteSpace=wrap;html=1;align=center;" vertex="1" parent="1">
          <mxGeometry x="800" y="440" width="100" height="40" as="geometry" />
        </mxCell>
        <mxCell id="Ky8Ka03l67uiZXdJzAAu-7" style="edgeStyle=orthogonalEdgeStyle;rounded=0;orthogonalLoop=1;jettySize=auto;html=1;" edge="1" parent="1" source="Ky8Ka03l67uiZXdJzAAu-5" target="Ky8Ka03l67uiZXdJzAAu-3">
          <mxGeometry relative="1" as="geometry" />
        </mxCell>
        <mxCell id="Ky8Ka03l67uiZXdJzAAu-5" value="Possui" style="rhombus;whiteSpace=wrap;html=1;rounded=1;arcSize=10;" vertex="1" parent="1">
          <mxGeometry x="620" y="420" width="80" height="80" as="geometry" />
        </mxCell>
        <mxCell id="Ky8Ka03l67uiZXdJzAAu-15" style="edgeStyle=orthogonalEdgeStyle;rounded=0;orthogonalLoop=1;jettySize=auto;html=1;" edge="1" parent="1" source="Ky8Ka03l67uiZXdJzAAu-12" target="Ky8Ka03l67uiZXdJzAAu-14">
          <mxGeometry relative="1" as="geometry" />
        </mxCell>
        <mxCell id="Ky8Ka03l67uiZXdJzAAu-12" value="faz" style="rhombus;whiteSpace=wrap;html=1;rounded=1;arcSize=10;" vertex="1" parent="1">
          <mxGeometry x="1540" y="420" width="80" height="80" as="geometry" />
        </mxCell>
        <mxCell id="Ky8Ka03l67uiZXdJzAAu-14" value="Reparo" style="rounded=1;arcSize=10;whiteSpace=wrap;html=1;align=center;" vertex="1" parent="1">
          <mxGeometry x="1320" y="440" width="100" height="40" as="geometry" />
        </mxCell>
        <mxCell id="Ky8Ka03l67uiZXdJzAAu-20" style="edgeStyle=orthogonalEdgeStyle;rounded=0;orthogonalLoop=1;jettySize=auto;html=1;" edge="1" parent="1" source="Ky8Ka03l67uiZXdJzAAu-18" target="Ky8Ka03l67uiZXdJzAAu-14">
          <mxGeometry relative="1" as="geometry" />
        </mxCell>
        <mxCell id="Ky8Ka03l67uiZXdJzAAu-18" value="recebe" style="rhombus;whiteSpace=wrap;html=1;rounded=1;arcSize=10;" vertex="1" parent="1">
          <mxGeometry x="1070" y="420" width="80" height="80" as="geometry" />
        </mxCell>
        <mxCell id="Ky8Ka03l67uiZXdJzAAu-22" style="edgeStyle=orthogonalEdgeStyle;rounded=0;orthogonalLoop=1;jettySize=auto;html=1;entryX=0.5;entryY=0;entryDx=0;entryDy=0;" edge="1" parent="1" source="Ky8Ka03l67uiZXdJzAAu-21" target="Ky8Ka03l67uiZXdJzAAu-1">
          <mxGeometry relative="1" as="geometry" />
        </mxCell>
        <mxCell id="Ky8Ka03l67uiZXdJzAAu-21" value="cpf" style="ellipse;whiteSpace=wrap;html=1;align=center;fontStyle=4" vertex="1" parent="1">
          <mxGeometry x="420" y="330" width="100" height="40" as="geometry" />
        </mxCell>
        <mxCell id="Ky8Ka03l67uiZXdJzAAu-25" style="edgeStyle=orthogonalEdgeStyle;rounded=0;orthogonalLoop=1;jettySize=auto;html=1;exitX=1;exitY=0.5;exitDx=0;exitDy=0;entryX=0.25;entryY=0;entryDx=0;entryDy=0;" edge="1" parent="1" source="Ky8Ka03l67uiZXdJzAAu-23" target="Ky8Ka03l67uiZXdJzAAu-1">
          <mxGeometry relative="1" as="geometry" />
        </mxCell>
        <mxCell id="Ky8Ka03l67uiZXdJzAAu-23" value="telefone" style="ellipse;whiteSpace=wrap;html=1;align=center;" vertex="1" parent="1">
          <mxGeometry x="270" y="370" width="100" height="40" as="geometry" />
        </mxCell>
        <mxCell id="Ky8Ka03l67uiZXdJzAAu-27" style="edgeStyle=orthogonalEdgeStyle;rounded=0;orthogonalLoop=1;jettySize=auto;html=1;entryX=0;entryY=0.5;entryDx=0;entryDy=0;" edge="1" parent="1" source="Ky8Ka03l67uiZXdJzAAu-26" target="Ky8Ka03l67uiZXdJzAAu-1">
          <mxGeometry relative="1" as="geometry" />
        </mxCell>
        <mxCell id="Ky8Ka03l67uiZXdJzAAu-26" value="nome" style="ellipse;whiteSpace=wrap;html=1;align=center;" vertex="1" parent="1">
          <mxGeometry x="270" y="440" width="100" height="40" as="geometry" />
        </mxCell>
        <mxCell id="Ky8Ka03l67uiZXdJzAAu-28" value="1" style="text;strokeColor=none;fillColor=none;spacingLeft=4;spacingRight=4;overflow=hidden;rotatable=0;points=[[0,0.5],[1,0.5]];portConstraint=eastwest;fontSize=12;whiteSpace=wrap;html=1;" vertex="1" parent="1">
          <mxGeometry x="520" y="440" width="40" height="30" as="geometry" />
        </mxCell>
        <mxCell id="Ky8Ka03l67uiZXdJzAAu-29" value="N" style="text;strokeColor=none;fillColor=none;spacingLeft=4;spacingRight=4;overflow=hidden;rotatable=0;points=[[0,0.5],[1,0.5]];portConstraint=eastwest;fontSize=12;whiteSpace=wrap;html=1;" vertex="1" parent="1">
          <mxGeometry x="780" y="440" width="40" height="30" as="geometry" />
        </mxCell>
        <mxCell id="Ky8Ka03l67uiZXdJzAAu-30" value="1" style="text;strokeColor=none;fillColor=none;spacingLeft=4;spacingRight=4;overflow=hidden;rotatable=0;points=[[0,0.5],[1,0.5]];portConstraint=eastwest;fontSize=12;whiteSpace=wrap;html=1;" vertex="1" parent="1">
          <mxGeometry x="900" y="440" width="40" height="30" as="geometry" />
        </mxCell>
        <mxCell id="Ky8Ka03l67uiZXdJzAAu-31" value="N" style="text;strokeColor=none;fillColor=none;spacingLeft=4;spacingRight=4;overflow=hidden;rotatable=0;points=[[0,0.5],[1,0.5]];portConstraint=eastwest;fontSize=12;whiteSpace=wrap;html=1;" vertex="1" parent="1">
          <mxGeometry x="1300" y="440" width="40" height="30" as="geometry" />
        </mxCell>
        <mxCell id="Ky8Ka03l67uiZXdJzAAu-33" value="1" style="text;strokeColor=none;fillColor=none;spacingLeft=4;spacingRight=4;overflow=hidden;rotatable=0;points=[[0,0.5],[1,0.5]];portConstraint=eastwest;fontSize=12;whiteSpace=wrap;html=1;" vertex="1" parent="1">
          <mxGeometry x="1420" y="440" width="40" height="30" as="geometry" />
        </mxCell>
        <mxCell id="Ky8Ka03l67uiZXdJzAAu-34" value="N" style="text;strokeColor=none;fillColor=none;spacingLeft=4;spacingRight=4;overflow=hidden;rotatable=0;points=[[0,0.5],[1,0.5]];portConstraint=eastwest;fontSize=12;whiteSpace=wrap;html=1;" vertex="1" parent="1">
          <mxGeometry x="1680" y="440" width="40" height="30" as="geometry" />
        </mxCell>
        <mxCell id="Ky8Ka03l67uiZXdJzAAu-36" style="edgeStyle=orthogonalEdgeStyle;rounded=0;orthogonalLoop=1;jettySize=auto;html=1;" edge="1" parent="1" source="Ky8Ka03l67uiZXdJzAAu-35" target="Ky8Ka03l67uiZXdJzAAu-3">
          <mxGeometry relative="1" as="geometry" />
        </mxCell>
        <mxCell id="Ky8Ka03l67uiZXdJzAAu-35" value="placa" style="ellipse;whiteSpace=wrap;html=1;align=center;fontStyle=4" vertex="1" parent="1">
          <mxGeometry x="800" y="330" width="100" height="40" as="geometry" />
        </mxCell>
        <mxCell id="Ky8Ka03l67uiZXdJzAAu-38" style="edgeStyle=orthogonalEdgeStyle;rounded=0;orthogonalLoop=1;jettySize=auto;html=1;entryX=0.5;entryY=1;entryDx=0;entryDy=0;" edge="1" parent="1" source="Ky8Ka03l67uiZXdJzAAu-37" target="Ky8Ka03l67uiZXdJzAAu-3">
          <mxGeometry relative="1" as="geometry" />
        </mxCell>
        <mxCell id="Ky8Ka03l67uiZXdJzAAu-37" value="modelo" style="ellipse;whiteSpace=wrap;html=1;align=center;" vertex="1" parent="1">
          <mxGeometry x="800" y="550" width="100" height="40" as="geometry" />
        </mxCell>
        <mxCell id="Ky8Ka03l67uiZXdJzAAu-40" style="edgeStyle=orthogonalEdgeStyle;rounded=0;orthogonalLoop=1;jettySize=auto;html=1;entryX=0.5;entryY=1;entryDx=0;entryDy=0;" edge="1" parent="1" source="Ky8Ka03l67uiZXdJzAAu-39" target="Ky8Ka03l67uiZXdJzAAu-14">
          <mxGeometry relative="1" as="geometry" />
        </mxCell>
        <mxCell id="Ky8Ka03l67uiZXdJzAAu-39" value="descricao_serviço" style="ellipse;whiteSpace=wrap;html=1;align=center;" vertex="1" parent="1">
          <mxGeometry x="1320" y="540" width="100" height="40" as="geometry" />
        </mxCell>
        <mxCell id="Ky8Ka03l67uiZXdJzAAu-42" style="edgeStyle=orthogonalEdgeStyle;rounded=0;orthogonalLoop=1;jettySize=auto;html=1;entryX=0.5;entryY=0;entryDx=0;entryDy=0;" edge="1" parent="1" source="Ky8Ka03l67uiZXdJzAAu-41" target="Ky8Ka03l67uiZXdJzAAu-14">
          <mxGeometry relative="1" as="geometry" />
        </mxCell>
        <mxCell id="Ky8Ka03l67uiZXdJzAAu-41" value="funcionario" style="ellipse;whiteSpace=wrap;html=1;align=center;" vertex="1" parent="1">
          <mxGeometry x="1320" y="320" width="100" height="40" as="geometry" />
        </mxCell>
        <mxCell id="Ky8Ka03l67uiZXdJzAAu-44" style="edgeStyle=orthogonalEdgeStyle;rounded=0;orthogonalLoop=1;jettySize=auto;html=1;entryX=0.5;entryY=0;entryDx=0;entryDy=0;" edge="1" parent="1" source="Ky8Ka03l67uiZXdJzAAu-43" target="Ky8Ka03l67uiZXdJzAAu-2">
          <mxGeometry relative="1" as="geometry" />
        </mxCell>
        <mxCell id="Ky8Ka03l67uiZXdJzAAu-43" value="nome" style="ellipse;whiteSpace=wrap;html=1;align=center;" vertex="1" parent="1">
          <mxGeometry x="1710" y="330" width="100" height="40" as="geometry" />
        </mxCell>
        <mxCell id="Ky8Ka03l67uiZXdJzAAu-46" style="edgeStyle=orthogonalEdgeStyle;rounded=0;orthogonalLoop=1;jettySize=auto;html=1;entryX=0.5;entryY=1;entryDx=0;entryDy=0;" edge="1" parent="1" source="Ky8Ka03l67uiZXdJzAAu-45" target="Ky8Ka03l67uiZXdJzAAu-2">
          <mxGeometry relative="1" as="geometry" />
        </mxCell>
        <mxCell id="Ky8Ka03l67uiZXdJzAAu-45" value="id_funcionario" style="ellipse;whiteSpace=wrap;html=1;align=center;fontStyle=4" vertex="1" parent="1">
          <mxGeometry x="1710" y="540" width="100" height="40" as="geometry" />
        </mxCell>
      </root>
    </mxGraphModel>
  </diagram>
</mxfile>
